<svg xmlns="http://www.w3.org/2000/svg" version="1.1" xmlns:xlink="http://www.w3.org/1999/xlink" xmlns:svgjs="http://svgjs.com/svgjs" width="1000" height="1000"><rect width="1000" height="1000" rx="0" ry="0" fill="#004daa" style="--darkreader-inline-fill: #003e88;" data-darkreader-inline-fill=""></rect><g transform="matrix(13.432815227731027,0,0,13.432815227731027,150.584466992623,150.0000008186464)"><svg xmlns="http://www.w3.org/2000/svg" version="1.1" xmlns:xlink="http://www.w3.org/1999/xlink" xmlns:svgjs="http://svgjs.com/svgjs" width="52.024174" height="52.111191"><svg version="1.1" x="0px" y="0px" viewBox="0 0 52.024173 52.111189" xml:space="preserve" id="svg492" sodipodi:docname="LPU-Stack-White-1.svg" width="52.024174" height="52.111191" inkscape:version="1.2.2 (b0a84865, 2022-12-01)" xmlns:inkscape="http://www.inkscape.org/namespaces/inkscape" xmlns:sodipodi="http://sodipodi.sourceforge.net/DTD/sodipodi-0.dtd" xmlns="http://www.w3.org/2000/svg" xmlns:svg="http://www.w3.org/2000/svg"><defs id="defs496"></defs><sodipodi:namedview id="namedview494" pagecolor="#505050" bordercolor="#eeeeee" borderopacity="1" inkscape:showpageshadow="0" inkscape:pageopacity="0" inkscape:pagecheckerboard="0" inkscape:deskcolor="#505050" showgrid="false" inkscape:zoom="2.4317361" inkscape:cx="23.851272" inkscape:cy="23.851272" inkscape:window-width="1309" inkscape:window-height="456" inkscape:window-x="0" inkscape:window-y="37" inkscape:window-maximized="0" inkscape:current-layer="svg492"></sodipodi:namedview>
<style type="text/css" id="style415">
	.st0{fill:#FFFFFF;}
</style><style class="darkreader darkreader--sync" media="screen"></style>
<g id="Template" transform="translate(-19.99,-4.654966e-4)">
</g>
<g id="Artwork" transform="translate(-19.99,-4.654966e-4)">
	<g id="g489">
		<g id="g464">
			<g id="g440">
				
				
				
				
				
				
				
				
				
				
				
			</g>
			<g id="g462">
				
				
				
				
				
				
				
				
				
				
			</g>
		</g>
		<g id="_x36_XAF5J_34_">
			<g id="g486">
				<path class="st0" d="m 52.71,23.15 c 0.56,0.55 0.58,0.88 0.07,1.45 -0.31,0.35 -0.62,0.69 -0.92,1.03 -0.01,0.01 -0.03,0.01 -0.08,0.03 -0.03,-0.13 -0.09,-0.27 -0.09,-0.4 0.02,-0.81 -0.5,-1.18 -1.16,-1.47 -1.08,-0.46 -2.23,-0.64 -3.39,-0.72 -1.84,-0.12 -3.67,-0.03 -5.45,0.54 -0.05,0.02 -0.09,0.03 -0.14,0.04 -0.94,0.33 -1.66,0.84 -1.61,2.02 -0.4,-0.45 -0.81,-0.89 -1.19,-1.36 -0.31,-0.37 -0.1,-0.72 0.15,-1.01 0.54,-0.62 1.27,-0.96 2,-1.3 0.32,-0.14 0.71,-0.2 0.6,-0.72 -0.07,-0.32 0.07,-0.66 -0.28,-0.93 -0.39,-0.32 -0.3,-0.76 0.19,-1.09 0.65,-0.45 1.4,-0.63 2.16,-0.74 1.82,-0.26 3.63,-0.26 5.43,0.18 0.49,0.12 0.97,0.29 1.39,0.6 0.47,0.35 0.52,0.71 0.09,1.1 -0.32,0.28 -0.14,0.6 -0.21,0.9 -0.09,0.45 0.21,0.54 0.52,0.68 0.69,0.31 1.38,0.63 1.92,1.17 z" id="path466"></path>
				<path class="st0" d="M 71.73,22.26 C 70.81,15.87 67.86,10.48 62.9,6.34 55.62,0.25 47.3,-1.48 38.23,1.27 27.74,4.45 20.59,13.84 19.99,24.8 v 0.69 c 0,0.63 0.01,1.25 0.01,1.88 0.06,0.69 0.1,1.38 0.19,2.06 0.7,5.41 2.84,10.19 6.56,14.14 6.6,7.01 14.73,9.77 24.21,8.04 13.07,-2.4 22.87,-14.92 20.77,-29.35 z M 54.06,47.13 c -0.09,0.04 -0.19,0.06 -0.33,0.1 -0.13,-1.32 -0.26,-2.62 -0.39,-3.92 -0.22,-2.25 -0.44,-4.5 -0.66,-6.76 -0.21,-2.17 -0.42,-4.34 -0.63,-6.51 -0.03,-0.38 -0.06,-0.75 -0.11,-1.13 -0.07,-0.49 -0.42,-0.75 -0.82,-0.97 -0.99,-0.52 -2.07,-0.72 -3.17,-0.84 -2.03,-0.23 -4.06,-0.16 -6.05,0.37 -0.3,0.08 -0.59,0.19 -0.88,0.31 -0.79,0.3 -1.17,0.84 -1.22,1.74 -0.11,1.85 -0.35,3.69 -0.54,5.54 -0.02,0.22 -0.02,0.45 -0.02,0.68 -0.18,0.16 -0.11,0.33 -0.05,0.63 0.06,-0.3 0.09,-0.47 0.13,-0.64 0.44,-1.96 0.95,-3.91 1.63,-5.81 0.17,-0.48 0.48,-0.79 0.94,-1 0.91,-0.41 1.88,-0.56 2.86,-0.63 1.58,-0.11 3.15,-0.04 4.68,0.44 0.82,0.26 1.31,0.71 1.51,1.6 0.63,2.75 1.06,5.53 1.31,8.34 0.26,2.82 0.39,5.63 0.41,8.46 0,0.42 -0.15,0.55 -0.52,0.64 -1.35,0.37 -2.72,0.6 -4.1,0.76 -0.33,0.04 -0.39,-0.08 -0.4,-0.37 -0.07,-1.03 -0.07,-2.06 -0.31,-3.08 -0.12,-0.46 -0.27,-0.91 -0.58,-1.29 -0.52,-0.63 -1.2,-0.62 -1.69,0.05 -0.48,0.65 -0.62,1.43 -0.7,2.21 -0.08,0.72 -0.12,1.44 -0.17,2.16 -0.02,0.23 -0.05,0.33 -0.35,0.3 C 35.57,47.53 29.5,43.33 25.7,35.95 23.65,31.98 23.01,27.7 23.54,23.25 c 0.08,-0.65 0.2,-1.29 0.3,-1.94 0.06,-0.33 0.2,-0.47 0.51,-0.53 2.79,-0.53 5.57,-1.06 8.35,-1.6 2.91,-0.56 5.82,-1.12 8.73,-1.68 0.13,-0.03 0.25,-0.05 0.31,-0.2 0.23,-0.6 0.74,-0.92 1.29,-1.14 2.03,-0.8 4.06,-0.79 6.08,0.02 0.56,0.23 1.07,0.54 1.24,1.18 0.07,0.24 0.29,0.19 0.44,0.22 2.13,0.41 4.27,0.81 6.41,1.22 3.48,0.66 6.95,1.32 10.43,1.98 0.31,0.06 0.45,0.19 0.51,0.53 1.44,7.71 -0.44,14.49 -5.77,20.27 -2.32,2.51 -5.13,4.32 -8.31,5.55 z m 8.3,-36.76 c -0.81,0.22 -1.58,0.42 -2.36,0.62 -3.36,0.85 -6.72,1.69 -10.08,2.55 -0.32,0.08 -0.5,0.03 -0.52,-0.32 -0.04,-0.94 -0.67,-1.37 -1.46,-1.63 -1.32,-0.42 -2.65,-0.42 -3.96,0.05 -0.72,0.26 -1.26,0.68 -1.32,1.53 -0.02,0.23 0.01,0.55 -0.48,0.41 C 38.21,12.42 34.23,11.3 30.25,10.16 30.16,10.14 30.08,10.1 29.98,10.07 37.99,1.58 53,0.6 62.36,10.37 Z M 49.38,11.1 c -0.15,-0.92 -1.79,-2.08 -3.25,-2.34 -1.05,-0.19 -3.13,1 -3.79,2.25 1.03,-0.87 2.24,-1.15 3.51,-1.15 1.29,0.01 2.54,0.24 3.53,1.24 z" id="path468"></path>
				<path class="st0" d="m 52.71,23.15 c 0.56,0.55 0.58,0.88 0.07,1.45 -0.31,0.35 -0.62,0.69 -0.92,1.03 -0.01,0.01 -0.03,0.01 -0.08,0.03 -0.03,-0.13 -0.09,-0.27 -0.09,-0.4 0.02,-0.81 -0.5,-1.18 -1.16,-1.47 -1.08,-0.46 -2.23,-0.64 -3.39,-0.72 -1.84,-0.12 -3.67,-0.03 -5.45,0.54 -0.05,0.02 -0.09,0.03 -0.14,0.04 -0.94,0.33 -1.66,0.84 -1.61,2.02 -0.4,-0.45 -0.81,-0.89 -1.19,-1.36 -0.31,-0.37 -0.1,-0.72 0.15,-1.01 0.54,-0.62 1.27,-0.96 2,-1.3 0.32,-0.14 0.71,-0.2 0.6,-0.72 -0.07,-0.32 0.07,-0.66 -0.28,-0.93 -0.39,-0.32 -0.3,-0.76 0.19,-1.09 0.65,-0.45 1.4,-0.63 2.16,-0.74 1.82,-0.26 3.63,-0.26 5.43,0.18 0.49,0.12 0.97,0.29 1.39,0.6 0.47,0.35 0.52,0.71 0.09,1.1 -0.32,0.28 -0.14,0.6 -0.21,0.9 -0.09,0.45 0.21,0.54 0.52,0.68 0.69,0.31 1.38,0.63 1.92,1.17 z" id="path470"></path>
				<path class="st0" d="M 46.01,2.51 C 33.46,2.41 22.56,12.59 22.4,25.78 22.25,39.23 33.11,49.43 45.51,49.68 58.49,49.94 69.59,39.46 69.59,26.06 69.6,13.06 59,2.51 46.01,2.51 Z m 16.35,7.86 c -0.81,0.22 -1.58,0.42 -2.36,0.62 -3.36,0.85 -6.72,1.69 -10.08,2.55 -0.32,0.08 -0.5,0.03 -0.52,-0.32 -0.04,-0.94 -0.67,-1.37 -1.46,-1.63 -1.32,-0.42 -2.65,-0.42 -3.96,0.05 -0.72,0.26 -1.26,0.68 -1.32,1.53 -0.02,0.23 0.01,0.55 -0.48,0.41 C 38.21,12.42 34.23,11.3 30.25,10.16 30.16,10.14 30.08,10.1 29.98,10.07 37.99,1.58 53,0.6 62.36,10.37 Z m 0.01,31.21 c -2.32,2.51 -5.13,4.32 -8.31,5.55 -0.09,0.04 -0.19,0.06 -0.33,0.1 -0.13,-1.32 -0.26,-2.62 -0.39,-3.92 -0.22,-2.25 -0.44,-4.5 -0.66,-6.76 -0.21,-2.17 -0.42,-4.34 -0.63,-6.51 -0.03,-0.38 -0.06,-0.75 -0.11,-1.13 -0.07,-0.49 -0.42,-0.75 -0.82,-0.97 -0.99,-0.52 -2.07,-0.72 -3.17,-0.84 -2.03,-0.23 -4.06,-0.16 -6.05,0.37 -0.3,0.08 -0.59,0.19 -0.88,0.31 -0.79,0.3 -1.17,0.84 -1.22,1.74 -0.11,1.85 -0.35,3.69 -0.54,5.54 -0.02,0.22 -0.02,0.45 -0.02,0.68 -0.18,0.16 -0.11,0.33 -0.05,0.63 0.06,-0.3 0.09,-0.47 0.13,-0.64 0.44,-1.96 0.95,-3.91 1.63,-5.81 0.17,-0.48 0.48,-0.79 0.94,-1 0.91,-0.41 1.88,-0.56 2.86,-0.63 1.58,-0.11 3.15,-0.04 4.68,0.44 0.82,0.26 1.31,0.71 1.51,1.6 0.63,2.75 1.06,5.53 1.31,8.34 0.26,2.82 0.39,5.63 0.41,8.46 0,0.42 -0.15,0.55 -0.52,0.64 -1.35,0.37 -2.72,0.6 -4.1,0.76 -0.33,0.04 -0.39,-0.08 -0.4,-0.37 -0.07,-1.03 -0.07,-2.06 -0.31,-3.08 -0.12,-0.46 -0.27,-0.91 -0.58,-1.29 -0.52,-0.63 -1.2,-0.62 -1.69,0.05 -0.48,0.65 -0.62,1.43 -0.7,2.21 -0.08,0.72 -0.12,1.44 -0.17,2.16 -0.02,0.23 -0.05,0.33 -0.35,0.3 C 35.57,47.53 29.5,43.33 25.7,35.95 23.65,31.98 23.01,27.7 23.54,23.25 c 0.08,-0.65 0.2,-1.29 0.3,-1.94 0.06,-0.33 0.2,-0.47 0.51,-0.53 2.79,-0.53 5.57,-1.06 8.35,-1.6 2.91,-0.56 5.82,-1.12 8.73,-1.68 0.13,-0.03 0.25,-0.05 0.31,-0.2 0.23,-0.6 0.74,-0.92 1.29,-1.14 2.03,-0.8 4.06,-0.79 6.08,0.02 0.56,0.23 1.07,0.54 1.24,1.18 0.07,0.24 0.29,0.19 0.44,0.22 2.13,0.41 4.27,0.81 6.41,1.22 3.48,0.66 6.95,1.32 10.43,1.98 0.31,0.06 0.45,0.19 0.51,0.53 1.44,7.71 -0.44,14.49 -5.77,20.27 z M 49.38,11.1 c -0.15,-0.92 -1.79,-2.08 -3.25,-2.34 -1.05,-0.19 -3.13,1 -3.79,2.25 1.03,-0.87 2.24,-1.15 3.51,-1.15 1.29,0.01 2.54,0.24 3.53,1.24 z" id="path472"></path>
				<path class="st0" d="m 39.19,36.03 c 0.02,-0.1 0.05,-0.2 0.13,-0.3 -0.04,0.17 -0.07,0.34 -0.13,0.64 -0.06,-0.3 -0.13,-0.47 0.05,-0.63 0,0.1 -0.04,0.2 -0.05,0.29 z" id="path474"></path>
				<path class="st0" d="m 52.78,24.6 c -0.31,0.35 -0.62,0.69 -0.92,1.03 -0.01,0.01 -0.03,0.01 -0.08,0.03 -0.03,-0.13 -0.09,-0.27 -0.09,-0.4 0.02,-0.81 -0.5,-1.18 -1.16,-1.47 -1.08,-0.46 -2.23,-0.64 -3.39,-0.72 -1.84,-0.12 -3.67,-0.03 -5.45,0.54 -0.05,0.02 -0.09,0.03 -0.14,0.04 -0.94,0.33 -1.66,0.84 -1.61,2.02 -0.4,-0.45 -0.81,-0.89 -1.19,-1.36 -0.31,-0.37 -0.1,-0.72 0.15,-1.01 0.54,-0.62 1.27,-0.96 2,-1.3 0.32,-0.14 0.71,-0.2 0.6,-0.72 -0.07,-0.32 0.07,-0.66 -0.28,-0.93 -0.39,-0.32 -0.3,-0.76 0.19,-1.09 0.65,-0.45 1.4,-0.63 2.16,-0.74 1.82,-0.26 3.63,-0.26 5.43,0.18 0.49,0.12 0.97,0.29 1.39,0.6 0.47,0.35 0.52,0.71 0.09,1.1 -0.32,0.28 -0.14,0.6 -0.21,0.9 -0.09,0.45 0.21,0.54 0.52,0.68 0.69,0.31 1.38,0.63 1.92,1.17 0.56,0.55 0.58,0.88 0.07,1.45 z" id="path476"></path>
				<path class="st0" d="m 49.38,11.1 c -0.99,-1 -2.24,-1.23 -3.53,-1.24 -1.27,0 -2.48,0.28 -3.51,1.15 0.66,-1.25 2.74,-2.44 3.79,-2.25 1.46,0.26 3.1,1.42 3.25,2.34 z" id="path478"></path>
				<path class="st0" d="m 39.32,35.73 c -0.04,0.17 -0.07,0.34 -0.13,0.64 -0.06,-0.3 -0.13,-0.47 0.05,-0.63 0.02,-0.02 0.05,-0.02 0.08,-0.01 z" id="path480"></path>
				<path class="st0" d="m 52.78,24.6 c -0.31,0.35 -0.62,0.69 -0.92,1.03 -0.01,0.01 -0.03,0.01 -0.08,0.03 -0.03,-0.13 -0.09,-0.27 -0.09,-0.4 0.02,-0.81 -0.5,-1.18 -1.16,-1.47 -1.08,-0.46 -2.23,-0.64 -3.39,-0.72 -1.84,-0.12 -3.67,-0.03 -5.45,0.54 -0.05,0.02 -0.09,0.03 -0.14,0.04 -0.94,0.33 -1.66,0.84 -1.61,2.02 -0.4,-0.45 -0.81,-0.89 -1.19,-1.36 -0.31,-0.37 -0.1,-0.72 0.15,-1.01 0.54,-0.62 1.27,-0.96 2,-1.3 0.32,-0.14 0.71,-0.2 0.6,-0.72 -0.07,-0.32 0.07,-0.66 -0.28,-0.93 -0.39,-0.32 -0.3,-0.76 0.19,-1.09 0.65,-0.45 1.4,-0.63 2.16,-0.74 1.82,-0.26 3.63,-0.26 5.43,0.18 0.49,0.12 0.97,0.29 1.39,0.6 0.47,0.35 0.52,0.71 0.09,1.1 -0.32,0.28 -0.14,0.6 -0.21,0.9 -0.09,0.45 0.21,0.54 0.52,0.68 0.69,0.31 1.38,0.63 1.92,1.17 0.56,0.55 0.58,0.88 0.07,1.45 z" id="path482"></path>
				<path class="st0" d="m 49.38,11.1 c -0.99,-1 -2.24,-1.23 -3.53,-1.24 -1.27,0 -2.48,0.28 -3.51,1.15 0.66,-1.25 2.74,-2.44 3.79,-2.25 1.46,0.26 3.1,1.42 3.25,2.34 z" id="path484"></path>
			</g>
		</g>
	</g>
</g>
</svg></svg></g></svg>