<svg xmlns:xlink="http://www.w3.org/1999/xlink"
     xmlns:svgjs="http://svgjs.com/svgjs"
     xmlns="http://www.w3.org/2000/svg"
     version="1.1" width="1000" height="1000">
  <rect width="1000" height="1000" rx="200" ry="200" fill="#f97316"/>
  <g
    transform="matrix(38.888888888888886,0,0,38.888888888888886,150,188.8888888888889)">
    <svg xmlns:xlink="http://www.w3.org/1999/xlink"
         xmlns:svgjs="http://svgjs.com/svgjs"
         xmlns="http://www.w3.org/2000/svg"
         version="1.1" width="18" height="16">
      <svg xmlns="http://www.w3.org/2000/svg" height="16" width="18"
           viewBox="0 0 576 512"><!--!Font Awesome Free 6.5.1 by @fontawesome - https://fontawesome.com License - https://fontawesome.com/license/free Copyright 2024 Fonticons, Inc.-->
        <path opacity="1" fill="#ffffff"
              d="M64 32C28.7 32 0 60.7 0 96V416c0 35.3 28.7 64 64 64H512c35.3 0 64-28.7 64-64V96c0-35.3-28.7-64-64-64H64zm80 256h64c44.2 0 80 35.8 80 80c0 8.8-7.2 16-16 16H80c-8.8 0-16-7.2-16-16c0-44.2 35.8-80 80-80zm-32-96a64 64 0 1 1 128 0 64 64 0 1 1 -128 0zm256-32H496c8.8 0 16 7.2 16 16s-7.2 16-16 16H368c-8.8 0-16-7.2-16-16s7.2-16 16-16zm0 64H496c8.8 0 16 7.2 16 16s-7.2 16-16 16H368c-8.8 0-16-7.2-16-16s7.2-16 16-16zm0 64H496c8.8 0 16 7.2 16 16s-7.2 16-16 16H368c-8.8 0-16-7.2-16-16s7.2-16 16-16z"
        />
      </svg>
    </svg>
  </g>
</svg>
